<svg xmlns="http://www.w3.org/2000/svg" viewBox="0 0 2400 2400">
  <path fill="#001E36" d="M0 0h2400v2400H0z"></path>
  <path fill="#31A8FF" d="M759 1593V804h406c90 0 161 25 213 74s78 116 78 200c0 87-26 158-77 213s-127 82-228 82h-265v220H759zm194-379h183c49 0 86-10 112-31s39-53 39-96c0-41-12-72-36-94s-61-33-109-33h-189v254zM1378 1392l182-28c9 44 27 77 55 97s68 30 119 30c52 0 91-9 117-28 25-19 38-43 38-73 0-25-11-44-33-58-15-9-53-22-114-37-92-23-156-43-191-60s-62-40-82-69-30-62-30-101c0-67 27-121 81-162s130-62 228-62c100 0 174 17 222 52s77 86 88 152l-172 27c-6-33-19-57-40-72s-52-23-92-23c-50 0-87 7-110 22s-34 34-34 58c0 22 9 39 28 52 19 13 65 28 137 46 93 23 158 43 195 61s66 40 86 70 30 67 30 111c0 72-28 130-84 173s-139 64-250 64c-100 0-178-20-235-59s-90-95-101-169z"></path>
</svg>
